HIERARCHY
ROOT SpineBase
{
  OFFSET 0.000000 0.000000 0.000000
  CHANNELS 6 Xposition Yposition Zposition Zrotation Xrotation Yrotation
  JOINT SpineMid
  {
    OFFSET 0.000000 31.459709 0.000000
    CHANNELS 3 Zrotation Xrotation Yrotation
    JOINT SpineShoulder
    {
      OFFSET 0.203056 23.428719 -0.726412
      CHANNELS 3 Zrotation Xrotation Yrotation
      JOINT Neck
      {
        OFFSET 0.131954 7.758406 -0.541927
        CHANNELS 3 Zrotation Xrotation Yrotation
        JOINT Head
        {
          OFFSET -4.273282 12.799099 1.381107
          CHANNELS 3 Zrotation Xrotation Yrotation
          End Site
          {
            OFFSET 0 0 0
          }
        }
      }
      JOINT ShoulderLeft
      {
        OFFSET -16.308230 -4.598839 7.615104
        CHANNELS 3 Zrotation Xrotation Yrotation
        JOINT ElbowLeft
        {
          OFFSET -1.862193 -28.317370 2.527108
          CHANNELS 3 Zrotation Xrotation Yrotation
          JOINT WristLeft
          {
            OFFSET 1.493891 -21.238278 -5.091384
            CHANNELS 3 Zrotation Xrotation Yrotation
            JOINT HandLeft
            {
              OFFSET 1.241620 -7.790393 -0.530105
              CHANNELS 3 Zrotation Xrotation Yrotation
              JOINT HandTipLeft
              {
                OFFSET 1.059649 -7.680120 -1.461473
                CHANNELS 3 Zrotation Xrotation Yrotation
                End Site
                {
                  OFFSET 0 0 0
                }
              }
              JOINT ThumbLeft
              {
                OFFSET 3.345828 -0.314712 -4.897169
                CHANNELS 3 Zrotation Xrotation Yrotation
                End Site
                {
                  OFFSET 0 0 0
                }
              }
            }
          }
        }
      }
      JOINT ShoulderRight
      {
        OFFSET 13.457369 -3.341454 -8.089061
        CHANNELS 3 Zrotation Xrotation Yrotation
        JOINT ElbowRight
        {
          OFFSET 8.121676 -26.713643 -3.871033
          CHANNELS 3 Zrotation Xrotation Yrotation
          JOINT WristRight
          {
            OFFSET 0.650070 -20.904067 -5.748608
            CHANNELS 3 Zrotation Xrotation Yrotation
            JOINT HandRight
            {
              OFFSET -1.122430 -6.838877 -0.805798
              CHANNELS 3 Zrotation Xrotation Yrotation
              JOINT HandTipRight
              {
                OFFSET -0.956204 -7.641722 -0.230236
                CHANNELS 3 Zrotation Xrotation Yrotation
                End Site
                {
                  OFFSET 0 0 0
                }
              }
              JOINT ThumbRight
              {
                OFFSET 2.008262 -2.512444 -1.805088
                CHANNELS 3 Zrotation Xrotation Yrotation
                End Site
                {
                  OFFSET 0 0 0
                }
              }
            }
          }
        }
      }
    }
  }
  JOINT HipLeft
  {
    OFFSET -5.813470 0.140420 -0.329609
    CHANNELS 3 Zrotation Xrotation Yrotation
    JOINT KneeLeft
    {
      OFFSET 2.673115 -37.830640 -2.247088
      CHANNELS 3 Zrotation Xrotation Yrotation
      JOINT AnkleLeft
      {
        OFFSET 8.031262 -37.914274 9.951290
        CHANNELS 3 Zrotation Xrotation Yrotation
        JOINT FootLeft
        {
          OFFSET -0.028099 -7.940726 -5.690686
          CHANNELS 3 Zrotation Xrotation Yrotation
          End Site
          {
            OFFSET 0 0 0
          }
        }
      }
    }
  }
  JOINT HipRight
  {
    OFFSET 6.273912 1.429074 -6.034828
    CHANNELS 3 Zrotation Xrotation Yrotation
    JOINT KneeRight
    {
      OFFSET 8.151783 -36.328386 -0.869980
      CHANNELS 3 Zrotation Xrotation Yrotation
      JOINT AnkleRight
      {
        OFFSET 5.213156 -37.315515 8.652421
        CHANNELS 3 Zrotation Xrotation Yrotation
        JOINT FootRight
        {
          OFFSET -5.090663 -7.408061 -0.939043
          CHANNELS 3 Zrotation Xrotation Yrotation
          End Site
          {
            OFFSET 0 0 0
          }
        }
      }
    }
  }
}
MOTION
Frames: 5
Frame Time: 0.033333
-26.108793 88.590206 338.031789 -0.329774 0.925420 34.490363 0.483614 -0.235620 -34.484618 -0.202294 -1.005036 0.000664 -5.742074 4.562016 2.402534 0.000000 0.000000 0.000000 -9.361919 -0.120550 -0.834699 2.681043 -7.771648 1.449348 -6.773883 10.162782 1.902225 5.933260 -6.691708 -0.782534 0.000000 0.000000 0.000000 0.000000 0.000000 0.000000 -38.364330 26.349846 24.676125 -100.376241 9.916901 10.116498 -16.747912 -0.808264 -53.728023 -12.338842 2.206502 -12.919103 0.000000 0.000000 0.000000 0.000000 0.000000 0.000000 -6.117856 -7.504943 -35.478853 3.292089 12.066616 1.370704 0.571273 -3.449692 -3.289332 0.000000 0.000000 0.000000 -1.864479 -1.878483 -34.887760 -0.761254 -2.199452 -0.562131 24.112456 18.401157 -18.479505 0.000000 0.000000 0.000000
-26.123374 88.986292 337.976787 -0.431415 0.850357 34.356427 0.443902 -0.256946 -34.353510 -0.080030 -0.888718 0.004599 -6.843115 4.844280 2.688351 0.000000 0.000000 0.000000 -9.189626 0.303548 -0.813313 3.559260 -8.143455 1.274011 -10.455809 8.557021 2.356246 8.565961 -5.105145 -0.652202 0.000000 0.000000 0.000000 0.000000 0.000000 0.000000 -41.066115 25.974617 25.820270 -103.569519 8.444850 6.854384 -21.202331 -5.385028 -71.899122 -8.488493 -1.014426 -20.183445 0.000000 0.000000 0.000000 0.000000 0.000000 0.000000 -6.006589 -7.486080 -35.340475 3.291908 12.037414 1.356472 -0.010898 -3.764007 -2.860277 0.000000 0.000000 0.000000 -1.859449 -1.858071 -34.764428 -1.070144 -2.320729 -0.680107 26.129736 19.336769 -19.975343 0.000000 0.000000 0.000000
-26.133277 89.034322 337.887941 -0.475541 0.829179 33.738188 -0.065055 -0.953640 -33.735288 -0.000000 0.000000 0.000000 -7.742318 5.215358 2.984444 0.000000 0.000000 0.000000 -8.899105 0.756294 -0.783102 4.360710 -8.615947 1.088919 -12.137571 6.502938 2.196319 7.792714 -5.089931 -0.596295 0.000000 0.000000 0.000000 0.000000 0.000000 0.000000 -42.522257 25.309544 26.112343 -109.776904 6.408643 2.900814 -16.362487 -9.988990 -80.517923 -5.596266 1.778863 -13.864274 0.000000 0.000000 0.000000 0.000000 0.000000 0.000000 -5.966561 -7.721832 -34.749987 3.252529 12.220295 1.361792 -0.122553 -3.939541 -2.770737 0.000000 0.000000 0.000000 -1.878286 -1.905888 -34.161689 -1.041529 -2.285198 -0.678274 26.233285 19.506483 -20.151800 0.000000 0.000000 0.000000
-26.086919 88.773188 337.744401 -0.405329 0.890765 32.620480 -0.138786 -0.968753 -32.618503 -0.000000 0.000000 0.000000 -8.355944 5.666056 3.272251 0.000000 0.000000 0.000000 -7.253568 1.859540 -0.650836 4.909162 -8.376370 0.797657 -14.753811 3.672836 2.042030 9.401507 -2.192445 -0.287940 0.000000 0.000000 0.000000 0.000000 0.000000 0.000000 -42.750418 24.450334 25.611926 -111.235623 4.841646 0.600158 -19.086327 -12.628871 -91.744421 -8.899650 6.527173 2.300071 0.000000 0.000000 0.000000 0.000000 0.000000 0.000000 -6.124859 -8.175702 -33.692066 3.315947 12.598779 1.372990 -0.987382 -3.476390 -2.260224 0.000000 0.000000 0.000000 -2.062623 -1.970269 -33.065042 -0.752039 -2.175066 -0.613399 25.391556 19.319245 -19.694340 0.000000 0.000000 0.000000
-26.090891 88.509708 337.617672 -0.459886 0.889656 31.188626 -0.067279 -0.999219 -31.185642 -0.000000 0.000000 0.000000 -8.464076 6.188194 3.506542 0.000000 0.000000 0.000000 -5.384662 3.297562 -0.542409 3.908034 -9.490866 0.624213 -14.130540 2.395892 1.664093 9.741947 0.769016 0.001927 0.000000 0.000000 0.000000 0.000000 0.000000 0.000000 -43.449982 23.979747 25.631477 -113.363326 3.546469 -3.553854 -16.239593 -14.687667 -92.643197 -11.399131 5.817316 6.750156 0.000000 0.000000 0.000000 0.000000 0.000000 0.000000 -6.078041 -8.725419 -32.323525 3.383508 13.005997 1.388451 -1.064379 -3.166263 -2.293533 0.000000 0.000000 0.000000 -1.970365 -2.003822 -31.624043 -0.525428 -2.197582 -0.574673 24.667042 19.085608 -19.255340 0.000000 0.000000 0.000000
